<svg width="74" height="40" viewBox="0 0 74 40" fill="none" xmlns="http://www.w3.org/2000/svg">
<g id="Union">
<path fill-rule="evenodd" clip-rule="evenodd" d="M7.40633 0.257842C8.70854 0.257842 9.84798 0.429737 10.8246 0.773527C11.8013 1.10013 12.5519 1.54706 13.0764 2.11431C13.619 2.68156 14.0169 3.29179 14.2701 3.94499C14.5233 4.58101 14.6499 5.25999 14.6499 5.98195C14.6499 6.70391 14.5233 7.39149 14.2701 8.04469C14.0169 8.6807 13.619 9.28234 13.0764 9.84959C12.5519 10.4168 11.8013 10.8724 10.8246 11.2162C9.84798 11.5428 8.70854 11.7061 7.40633 11.7061H2.46878V18.2553H0V0.257842H7.40633ZM7.16217 9.48861C9.00697 9.48861 10.3001 9.15342 11.0417 8.48303C11.8013 7.81263 12.1811 6.97894 12.1811 5.98195C12.1811 4.98496 11.8013 4.15127 11.0417 3.48088C10.3001 2.81048 9.00697 2.47529 7.16217 2.47529H2.46878V9.48861H7.16217Z" fill="#2A2A2B"/>
<path fill-rule="evenodd" clip-rule="evenodd" d="M32.7709 16.0378V16.6566C32.7709 17.2067 32.9246 17.7052 33.2321 18.1521V18.2553H30.6819C30.4287 17.8599 30.3021 17.3958 30.3021 16.8629V16.4504C30.3021 14.8689 30.1303 13.786 29.7866 13.2015C29.6238 12.8921 29.4068 12.5655 29.1355 12.2217C28.5748 11.5685 27.6072 11.2419 26.2327 11.2419H20.6169V18.2553H18.1481V0.257842H25.6901C28.1498 0.257842 29.9946 0.739149 31.2245 1.70176C32.4543 2.66437 33.0693 3.9278 33.0693 5.49205C33.0693 6.54061 32.7709 7.48603 32.174 8.32832C31.5772 9.15342 30.709 9.75505 29.5696 10.1332V10.1848C31.7038 10.7177 32.7709 12.6687 32.7709 16.0378ZM25.5273 9.02449C27.0827 9.02449 28.3126 8.73227 29.2169 8.14783C30.1393 7.56339 30.6005 6.74688 30.6005 5.69832C30.6005 4.64976 30.2026 3.85045 29.4068 3.30039C28.6291 2.75032 27.2907 2.47529 25.3917 2.47529H20.6169V9.02449H25.5273Z" fill="#2A2A2B"/>
<path fill-rule="evenodd" clip-rule="evenodd" d="M38.9812 2.57843C40.6994 0.859475 42.9873 0 45.8449 0C48.7025 0 50.9904 0.859475 52.7086 2.57843C54.4268 4.29738 55.3131 6.52342 55.3673 9.25655C55.3131 11.9897 54.4268 14.2157 52.7086 15.9347C50.9904 17.6536 48.7025 18.5131 45.8449 18.5131C42.9873 18.5131 40.6994 17.6536 38.9812 15.9347C37.263 14.2157 36.3767 11.9897 36.3225 9.25655C36.3767 6.52342 37.263 4.29738 38.9812 2.57843ZM38.7913 9.25655C38.7913 11.3021 39.4152 12.9953 40.6632 14.3361C41.9292 15.6596 43.6474 16.3214 45.8178 16.3214C48.0062 16.3214 49.7334 15.6596 50.9995 14.3361C52.2655 12.9953 52.8985 11.3021 52.8985 9.25655C52.8985 7.211 52.2655 5.52643 50.9995 4.20284C49.7334 2.86205 48.0062 2.19166 45.8178 2.19166C43.6474 2.19166 41.9292 2.86205 40.6632 4.20284C39.4152 5.52643 38.7913 7.211 38.7913 9.25655Z" fill="#2A2A2B"/>
<path d="M15.6898 21.7447V23.9364H9.15166V39.7422H6.68288V23.9364H0.14469V21.7447H15.6898Z" fill="#2A2A2B"/>
<path d="M20.5549 23.9364H33.541V21.7447H18.0861V39.7421L33.541 39.7422V37.5505L20.5549 37.5505V31.8264H31.2802V29.6347H20.5549V23.9364Z" fill="#2A2A2B"/>
<path d="M53.1104 25.4835C51.2475 24.3146 49.1947 23.7301 46.952 23.7301C44.7093 23.7301 42.9549 24.3833 41.6889 25.6897C40.4228 26.9961 39.7898 28.6807 39.7898 30.7434C39.7898 32.8062 40.4228 34.4908 41.6889 35.7972C42.9549 37.1036 44.7093 37.7568 46.952 37.7568C49.1947 37.7568 51.2475 37.1723 53.1104 36.0034H53.246V38.324C51.2927 39.4413 49.1495 40 46.8163 40C44.0491 40 41.7703 39.1663 39.9797 37.4989C38.2073 35.8144 37.321 33.5625 37.321 30.7434C37.321 27.9244 38.2073 25.6811 39.9797 24.0138C41.7703 22.3292 44.0491 21.4869 46.8163 21.4869C49.1495 21.4869 51.2927 22.0456 53.246 23.1629V25.4835H53.1104Z" fill="#2A2A2B"/>
<path d="M74 21.7447H71.5312V29.6605H61.2492V21.7447H58.7804V39.7422H61.2492V31.8522H71.5312V39.7422H74V21.7447Z" fill="#2A2A2B"/>
</g>
</svg>
