<svg width="26" height="26" viewBox="0 0 26 26" fill="none" xmlns="http://www.w3.org/2000/svg">
<g id="material-symbols-light:language">
<path id="Vector" d="M13 22.75C11.6581 22.75 10.3942 22.4936 9.20833 21.9808C8.02244 21.4681 6.98967 20.7711 6.11 19.89C5.22889 19.0111 4.53194 17.9783 4.01917 16.7917C3.50639 15.6058 3.25 14.3419 3.25 13C3.25 11.6545 3.50639 10.3895 4.01917 9.20508C4.53267 8.02064 5.22961 6.98858 6.11 6.10892C6.98894 5.22925 8.02172 4.53303 9.20833 4.02025C10.3942 3.50675 11.6581 3.25 13 3.25C14.3455 3.25 15.6105 3.50639 16.7949 4.01917C17.9794 4.53267 19.0114 5.22961 19.8911 6.11C20.7708 6.98967 21.467 8.02136 21.9797 9.20508C22.4932 10.3895 22.75 11.6545 22.75 13C22.75 14.3419 22.4936 15.6058 21.9808 16.7917C21.4681 17.9776 20.7711 19.0103 19.89 19.89C19.0103 20.7704 17.9786 21.4673 16.7949 21.9808C15.6105 22.4936 14.3455 22.75 13 22.75ZM13 21.6753C13.6356 20.8585 14.1599 20.0565 14.573 19.2693C14.9854 18.482 15.3209 17.6009 15.5794 16.6259H10.4206C10.7066 17.6558 11.0489 18.5644 11.4476 19.3516C11.8463 20.1388 12.3637 20.9134 13 21.6753ZM11.6209 21.5128C11.1154 20.917 10.6539 20.1803 10.2364 19.3028C9.81897 18.4261 9.50842 17.5334 9.30475 16.6248H5.14908C5.77019 17.9725 6.65022 19.0775 7.78917 19.9398C8.92883 20.8022 10.2057 21.3265 11.6198 21.5128H11.6209ZM14.3791 21.5128C15.7932 21.3265 17.0701 20.8022 18.2098 19.9398C19.3494 19.0775 20.2294 17.9725 20.8498 16.6248H16.6963C16.4219 17.5471 16.0763 18.447 15.6596 19.3245C15.2421 20.2013 14.8153 20.9307 14.3791 21.5128ZM4.70817 15.5415H9.07942C8.99708 15.0973 8.93931 14.6644 8.90608 14.2426C8.87142 13.8208 8.85408 13.4066 8.85408 13C8.85408 12.5934 8.87106 12.1792 8.905 11.7574C8.93894 11.3356 8.99672 10.9023 9.07833 10.4574H4.70925C4.59153 10.833 4.49944 11.2421 4.433 11.6848C4.36656 12.1276 4.33333 12.5659 4.33333 13C4.33333 13.4348 4.36619 13.8732 4.43192 14.3152C4.49836 14.7579 4.59044 15.1667 4.70817 15.5415ZM10.1627 15.5415H15.8373C15.9196 15.0973 15.9774 14.6712 16.0106 14.2632C16.0453 13.8558 16.0626 13.4348 16.0626 13C16.0626 12.5652 16.0456 12.1442 16.0117 11.7368C15.9777 11.3288 15.9199 10.9027 15.8383 10.4585H10.1617C10.0801 10.9027 10.0223 11.3288 9.98833 11.7368C9.95439 12.1442 9.93742 12.5652 9.93742 13C9.93742 13.4348 9.95439 13.8558 9.98833 14.2632C10.0223 14.6712 10.0811 15.0973 10.1627 15.5415ZM16.9206 15.5415H21.2918C21.4096 15.1659 21.5016 14.7572 21.5681 14.3152C21.6345 13.8732 21.6674 13.4348 21.6667 13C21.6667 12.5652 21.6338 12.1268 21.5681 11.6848C21.5016 11.2421 21.4096 10.8333 21.2918 10.4585H16.9206C17.0029 10.9027 17.0607 11.3356 17.0939 11.7574C17.1286 12.1792 17.1459 12.5934 17.1459 13C17.1459 13.4066 17.1289 13.8208 17.095 14.2426C17.0611 14.6644 17.0033 15.0977 16.9217 15.5426L16.9206 15.5415ZM16.6963 9.37517H20.8498C20.215 8.00006 19.3454 6.89506 18.2412 6.06017C17.1362 5.22528 15.8488 4.69444 14.3791 4.46767C14.8846 5.13211 15.3393 5.89261 15.743 6.74917C16.146 7.605 16.4638 8.48033 16.6963 9.37517ZM10.4206 9.37517H15.5794C15.2934 8.35828 14.9406 7.43889 14.521 6.617C14.1021 5.79439 13.5951 5.03028 13 4.32467C12.4056 5.03028 11.8986 5.79439 11.479 6.617C11.0601 7.43889 10.7073 8.35828 10.4206 9.37517ZM5.15017 9.37517H9.30367C9.53622 8.48033 9.854 7.605 10.257 6.74917C10.6607 5.89261 11.1154 5.13175 11.6209 4.46658C10.1375 4.69408 8.84686 5.22853 7.74908 6.06992C6.65131 6.91203 5.78464 8.01342 5.14908 9.37408L5.15017 9.37517Z" fill="#2A2A2B"/>
</g>
</svg>
