<svg width="32" height="32" viewBox="0 0 32 32" fill="none" xmlns="http://www.w3.org/2000/svg">
<g id="Outline/General/Shopping-bag">
<path id="Icon" fill-rule="evenodd" clip-rule="evenodd" d="M9.66701 9.66663V9.50679C9.66701 6.61647 11.6238 4.09282 14.4231 3.37301C15.4578 3.10695 16.5429 3.10695 17.5776 3.37301C20.3769 4.09282 22.3337 6.61647 22.3337 9.50679V9.66663H24.3352C25.0969 9.66663 25.7433 10.2253 25.8538 10.9789L26.1453 12.9689C26.7194 16.8868 26.7194 20.8675 26.1453 24.7854C25.8681 26.6775 24.3424 28.1402 22.4403 28.3375L21.6018 28.4244C17.8775 28.8107 14.1232 28.8107 10.3988 28.4244L9.56034 28.3375C7.65829 28.1402 6.13257 26.6775 5.85535 24.7854C5.28129 20.8675 5.28129 16.8868 5.85535 12.9689L6.14691 10.9789C6.25734 10.2253 6.9038 9.66663 7.66551 9.66663H9.66701ZM14.9212 5.30999C15.6291 5.12795 16.3716 5.12795 17.0795 5.30999C18.9948 5.80249 20.3337 7.5292 20.3337 9.50679V9.66663H11.667V9.50679C11.667 7.5292 13.0059 5.80249 14.9212 5.30999ZM9.66701 11.6666V14.6666C9.66701 15.2189 10.1147 15.6666 10.667 15.6666C11.2193 15.6666 11.667 15.2189 11.667 14.6666V11.6666H20.3337V14.6666C20.3337 15.2189 20.7814 15.6666 21.3337 15.6666C21.886 15.6666 22.3337 15.2189 22.3337 14.6666V11.6666H23.9332L24.1665 13.2588C24.7123 16.9845 24.7123 20.7698 24.1665 24.4955C24.0219 25.4823 23.2261 26.2453 22.234 26.3481L21.3955 26.4351C17.8084 26.8071 14.1923 26.8071 10.6051 26.4351L9.76664 26.3481C8.77459 26.2453 7.97881 25.4823 7.83422 24.4955C7.28833 20.7698 7.28833 16.9845 7.83422 13.2588L8.06751 11.6666H9.66701Z" fill="#2A2A2B"/>
</g>
</svg>
